REM DIRINDEX 1\2\6,1\2\7,1\2\8,1\2\9,1\3\10,1\3\11,1\4\12,1\4\13,1\4\14,1\5\15,1\5\16,1\5\17
REM DIRNAME folder01,folder02,folder03,folder04,folder05,folder06,folder07,folder08,folder09,folder10,folder11,folder12,folder13,folder14,folder15,folder16,folder17
TITLE ""
FILE "1900_3_029 sec05_0465_0481.mp3" MP3
  TRACK 01 AUDIO
    TITLE "0:"
    INDEX 01 00:00:00
  TRACK 02 AUDIO
    TITLE "17:cjc020_6900"
    INDEX 01 00:00:19
  TRACK 03 AUDIO
    TITLE "0:"
    INDEX 01 00:01:19
  TRACK 04 AUDIO
    TITLE "16:cjc020_6901"
    INDEX 01 00:01:26
  TRACK 05 AUDIO
    TITLE "0:"
    INDEX 01 00:02:26
  TRACK 06 AUDIO
    TITLE "17:cjc020_6902"
    INDEX 01 00:03:12
  TRACK 07 AUDIO
    TITLE "0:"
    INDEX 01 00:04:13
  TRACK 08 AUDIO
    TITLE "16:cjc020_6903"
    INDEX 01 00:04:17
  TRACK 09 AUDIO
    TITLE "0:"
    INDEX 01 00:05:42
  TRACK 10 AUDIO
    TITLE "17:cjc020_6904"
    INDEX 01 00:06:20
  TRACK 11 AUDIO
    TITLE "0:"
    INDEX 01 00:07:19
  TRACK 12 AUDIO
    TITLE "16:cjc020_6905"
    INDEX 01 00:07:23
  TRACK 13 AUDIO
    TITLE "0:"
    INDEX 01 00:08:46
  TRACK 14 AUDIO
    TITLE "17:cjc020_6906"
    INDEX 01 00:09:28
  TRACK 15 AUDIO
    TITLE "0:"
    INDEX 01 00:11:60
  TRACK 16 AUDIO
    TITLE "16:cjc020_6907"
    INDEX 01 00:11:64
  TRACK 17 AUDIO
    TITLE "0:"
    INDEX 01 00:12:67
  TRACK 18 AUDIO
    TITLE "17:cjc020_6908"
    INDEX 01 00:13:51
  TRACK 19 AUDIO
    TITLE "0:"
    INDEX 01 00:15:72
  TRACK 20 AUDIO
    TITLE "16:cjc020_6909"
    INDEX 01 00:16:04
  TRACK 21 AUDIO
    TITLE "0:"
    INDEX 01 00:17:14
  TRACK 22 AUDIO
    TITLE "17:cjc020_6910"
    INDEX 01 00:18:03
  TRACK 23 AUDIO
    TITLE "0:"
    INDEX 01 00:19:40
  TRACK 24 AUDIO
    TITLE "16:cjc020_6911"
    INDEX 01 00:19:44
  TRACK 25 AUDIO
    TITLE "0:"
    INDEX 01 00:20:45
  TRACK 26 AUDIO
    TITLE "17:cjc020_6912"
    INDEX 01 00:21:31
  TRACK 27 AUDIO
    TITLE "0:"
    INDEX 01 00:22:32
  TRACK 28 AUDIO
    TITLE "16:cjc020_6913"
    INDEX 01 00:22:38
  TRACK 29 AUDIO
    TITLE "0:"
    INDEX 01 00:23:40
  TRACK 30 AUDIO
    TITLE "17:cjc020_6914"
    INDEX 01 00:24:24
  TRACK 31 AUDIO
    TITLE "0:"
    INDEX 01 00:25:50
  TRACK 32 AUDIO
    TITLE "16:cjc020_6915"
    INDEX 01 00:25:52
  TRACK 33 AUDIO
    TITLE "0:"
    INDEX 01 00:26:71
  TRACK 34 AUDIO
    TITLE "17:cjc020_6916"
    INDEX 01 00:27:53
  TRACK 35 AUDIO
    TITLE "0:"
    INDEX 01 00:29:48
  TRACK 36 AUDIO
    TITLE "16:cjc020_6917"
    INDEX 01 00:29:50
  TRACK 37 AUDIO
    TITLE "0:"
    INDEX 01 00:30:48
  TRACK 38 AUDIO
    TITLE "17:cjc020_6918"
    INDEX 01 00:31:35
  TRACK 39 AUDIO
    TITLE "0:"
    INDEX 01 00:32:43
  TRACK 40 AUDIO
    TITLE "16:cjc020_6919"
    INDEX 01 00:32:54
  TRACK 41 AUDIO
    TITLE "0:"
    INDEX 01 00:33:48
  TRACK 42 AUDIO
    TITLE "17:cjc020_6920"
    INDEX 01 00:34:30
  TRACK 43 AUDIO
    TITLE "0:"
    INDEX 01 00:35:35
  TRACK 44 AUDIO
    TITLE "16:cjc020_6921"
    INDEX 01 00:35:41
  TRACK 45 AUDIO
    TITLE "0:"
    INDEX 01 00:36:58
  TRACK 46 AUDIO
    TITLE "17:cjc020_6922"
    INDEX 01 00:37:44
  TRACK 47 AUDIO
    TITLE "0:"
    INDEX 01 00:38:57
  TRACK 48 AUDIO
    TITLE "16:cjc020_6923"
    INDEX 01 00:38:61
  TRACK 49 AUDIO
    TITLE "0:"
    INDEX 01 00:39:58
  TRACK 50 AUDIO
    TITLE "17:cjc020_6924"
    INDEX 01 00:40:42
  TRACK 51 AUDIO
    TITLE "0:"
    INDEX 01 00:41:30
  TRACK 52 AUDIO
    TITLE "16:cjc020_6925"
    INDEX 01 00:41:32
  TRACK 53 AUDIO
    TITLE "0:"
    INDEX 01 00:42:31
  TRACK 54 AUDIO
    TITLE "17:cjc020_6926"
    INDEX 01 00:43:15
  TRACK 55 AUDIO
    TITLE "0:"
    INDEX 01 00:44:40
  TRACK 56 AUDIO
    TITLE "16:cjc020_6927"
    INDEX 01 00:44:44
  TRACK 57 AUDIO
    TITLE "0:"
    INDEX 01 00:45:73
  TRACK 58 AUDIO
    TITLE "17:cjc020_6928"
    INDEX 01 00:46:60
  TRACK 59 AUDIO
    TITLE "0:"
    INDEX 01 00:48:04
  TRACK 60 AUDIO
    TITLE "16:cjc020_6929"
    INDEX 01 00:48:08
  TRACK 61 AUDIO
    TITLE "0:"
    INDEX 01 00:49:25
  TRACK 62 AUDIO
    TITLE "17:cjc020_6930"
    INDEX 01 00:50:11
  TRACK 63 AUDIO
    TITLE "0:"
    INDEX 01 00:52:34
  TRACK 64 AUDIO
    TITLE "16:cjc020_6931"
    INDEX 01 00:52:49
  TRACK 65 AUDIO
    TITLE "0:"
    INDEX 01 00:53:49
  TRACK 66 AUDIO
    TITLE "17:cjc020_6932"
    INDEX 01 00:54:34
  TRACK 67 AUDIO
    TITLE "0:"
    INDEX 01 00:55:44
  TRACK 68 AUDIO
    TITLE "16:cjc020_6933"
    INDEX 01 00:55:53
  TRACK 69 AUDIO
    TITLE "0:"
    INDEX 01 00:56:72
